<?xml version="1.0" encoding="UTF-8"?>
<svg width="24px" height="24px" viewBox="0 0 24 24" version="1.1" xmlns="http://www.w3.org/2000/svg" xmlns:xlink="http://www.w3.org/1999/xlink">
    <title>googleLogo</title>
    <g id="Page-1" stroke="none" stroke-width="1" fill="none" fill-rule="evenodd">
        <g id="googleLogo" fill-rule="nonzero">
            <path d="M24,12.2666565 C24,11.28 23.9183048,10.56 23.7415018,9.81334354 L12.244898,9.81334354 L12.244898,14.2666258 L18.9931451,14.2666258 C18.8571429,15.3733283 18.122449,17.04 16.4897646,18.1599388 L16.4668787,18.309031 L20.1018924,21.0687092 L20.3537311,21.0933436 C22.6666146,18.9999847 24,15.9199694 24,12.2666565" id="Path" fill="#4285F4"></path>
            <path d="M12.244898,24 C15.5509735,24 18.3264525,22.9332822 20.3537311,21.0933436 L16.4897646,18.1599388 C15.4557719,18.8666105 14.0679855,19.3599388 12.244898,19.3599388 C9.00682356,19.3599388 6.25854509,17.2666717 5.27885945,14.3733436 L5.13525978,14.385293 L1.35552099,17.2519648 L1.30609118,17.3866258 C3.31967579,21.3065952 7.45574063,24 12.244898,24" id="Path" fill="#34A853"></path>
            <path d="M5.27885945,14.3733436 C5.02036126,13.6266871 4.87075872,12.8266258 4.87075872,12 C4.87075872,11.1732823 5.02036126,10.3733129 5.26525923,9.62665646 L5.25841221,9.46763692 L1.4313071,6.55491382 L1.30609118,6.61328226 C0.476195687,8.23996937 0,10.0666718 0,12 C0,13.9333283 0.476195687,15.7599388 1.30609118,17.3866258 L5.27885945,14.3733436" id="Path" fill="#FBBC05"></path>
            <path d="M12.244898,4.63996937 C14.5441812,4.63996937 16.0951704,5.61329759 16.9795606,6.42668709 L20.4353325,3.12 C18.312946,1.18667177 15.5509735,0 12.244898,0 C7.45574063,0 3.31967579,2.69331291 1.30609118,6.61328226 L5.26525923,9.62665646 C6.25854509,6.73332822 9.00682356,4.63996937 12.244898,4.63996937" id="Path" fill="#EB4335"></path>
        </g>
    </g>
</svg>