<?xml version="1.0" encoding="UTF-8"?>
<svg width="653px" height="738px" viewBox="0 0 653 738" version="1.1" xmlns="http://www.w3.org/2000/svg" xmlns:xlink="http://www.w3.org/1999/xlink">
    <title>startImage</title>
    <g id="Page-1" stroke="none" stroke-width="1" fill="none" fill-rule="evenodd">
        <g id="startImage" transform="translate(0.000010, -0.000005)" fill-rule="nonzero">
            <path d="M442.39218,580.860055 C463.11109,561.355565 473.7939,532.136905 462.66299,507.420745 C446.45908,532.291745 419.7833,551.879165 388.85536,561.615915 C376.80936,565.408315 362.95671,568.536715 356.4047,578.102365 C352.3277,584.054265 352.0307,591.508365 353.86751,598.247875 C355.70459,604.987645 359.48673,611.187075 363.23138,617.301695 L363.25278,619.030595 C392.57179,611.571675 421.67327,600.364545 442.39218,580.860055 Z" id="Path" fill="#F2F2F2"></path>
            <path d="M462.03998,507.551885 C458.5467,529.076085 447.11563,549.770125 429.63823,565.370375 C425.844589,568.899261 421.539584,571.834766 416.86895,574.077515 C412.062198,576.206009 406.822243,577.17423 401.57226,576.903985 C396.62681,576.746545 391.58915,576.087985 386.68577,576.977645 C381.826698,577.831722 377.524344,580.626247 374.76847,584.718335 C371.51766,589.499445 370.43818,595.010195 369.59811,600.431115 C368.66538,606.450015 367.80632,612.714605 363.84345,617.892185 C363.3633,618.519515 364.51184,619.130095 364.99127,618.503705 C371.88598,609.495605 369.57919,597.983195 374.23127,588.268635 C376.40202,583.735635 380.15836,579.743515 385.77387,578.374685 C390.68439,577.177685 395.87994,577.852975 400.88573,578.049985 C406.016009,578.375868 411.156556,577.59857 415.96113,575.770445 C420.745831,573.744456 425.171968,570.959099 429.06862,567.521935 C437.600437,560.231067 444.890667,551.602097 450.65423,541.972455 C457.050624,531.422949 461.372168,519.748321 463.38636,507.576675 C463.50703,506.833155 462.15986,506.813265 462.03998,507.551925 L462.03998,507.551885 Z" id="Path" fill="#FFFFFF"></path>
            <path d="M435.62712,560.559945 C442.920579,565.081662 452.278402,564.484013 458.93738,559.071205 C459.55262,558.541335 458.63375,557.685865 458.01769,558.216435 C451.824777,563.267553 443.101139,563.809125 436.33103,559.562765 C435.63381,559.115915 434.93389,560.115645 435.62712,560.559945 L435.62712,560.559945 Z" id="Path" fill="#FFFFFF"></path>
            <path d="M404.06768,577.270725 C402.667796,569.665618 404.586528,561.824857 409.34005,555.725565 C409.81763,555.096775 408.66924,554.486005 408.19223,555.114035 C403.258889,561.470428 401.281127,569.633958 402.75831,577.543415 C402.90209,578.287175 404.21067,578.010415 404.06768,577.270725 L404.06768,577.270725 Z" id="Path" fill="#FFFFFF"></path>
            <path d="M455.34436,531.108395 C452.357745,530.043409 450.13493,527.508737 449.46893,524.408655 C449.33608,523.663655 448.02758,523.941225 448.15957,524.681355 C448.910204,528.10049 451.354023,530.900021 454.64045,532.105565 C454.956382,532.264234 455.339986,532.184344 455.56631,531.912745 C455.657422,531.780122 455.68531,531.614029 455.64251,531.458921 C455.59971,531.303813 455.490592,531.175526 455.34436,531.108395 L455.34436,531.108395 Z" id="Path" fill="#FFFFFF"></path>
            <path d="M364.41417,479.318145 C364.48189,479.785365 364.54962,480.252595 364.60902,480.726565 C365.481664,487.002327 365.765816,493.345916 365.45777,499.674565 C365.44289,500.163955 365.41932,500.659715 365.38828,501.147715 C364.413028,516.54493 360.216597,531.56597 353.07043,545.239215 C350.163218,550.821681 346.80596,556.157975 343.03198,561.195125 C337.7738,568.224055 331.42885,575.481745 329.21571,583.376855 C328.974887,584.195026 328.792047,585.029157 328.66855,585.873045 L360.82331,618.919145 C360.93977,618.962385 361.04795,619.012335 361.16476,619.055945 L362.37916,620.426375 C362.59661,620.175785 362.81595,619.911825 363.0334,619.661245 C363.16023,619.516335 363.2799,619.364065 363.40674,619.219165 C363.48902,619.120225 363.57101,619.020885 363.65174,618.935695 C363.67927,618.902855 363.70645,618.869645 363.72534,618.843145 C363.80611,618.757945 363.87072,618.671365 363.94279,618.592555 C365.173457,617.120022 366.39438,615.637422 367.60556,614.144755 C367.61425,614.138375 367.61425,614.138375 367.61577,614.124635 C376.81077,602.730705 384.99158,590.569785 390.78771,577.716745 C390.96195,577.329985 391.14523,576.937225 391.30477,576.535375 C393.865375,570.773585 395.892195,564.789112 397.35977,558.657135 C398.142215,555.327517 398.731396,551.955424 399.12436,548.557755 C400.116354,539.787571 399.514102,530.910278 397.34668,522.354435 C393.01719,505.212115 382.42525,489.463535 365.70011,480.028115 C365.27211,479.787025 364.85091,479.552875 364.41417,479.318145 Z" id="Path" fill="#F2F2F2"></path>
            <path d="M364.00368,479.746985 C376.13125,498.759985 381.34562,521.262105 378.20221,542.859625 C377.633281,547.613921 376.224291,552.229346 374.04091,556.490785 C371.610613,560.772519 368.067183,564.316986 363.78616,566.748535 C359.72839,569.209535 355.24968,571.318675 351.95116,574.593765 C348.660343,577.828819 347.117225,582.44383 347.80034,587.007645 C348.51817,592.525435 351.47534,597.490085 354.56141,602.257785 C357.9879,607.551405 361.6435,613.002665 362.06755,619.209465 C362.11893,619.961465 363.45912,619.848265 363.40782,619.097365 C362.67004,608.298605 352.84982,600.313155 349.83182,590.123365 C348.42358,585.368605 348.65617,580.216365 352.19121,576.186215 C355.28245,572.662025 359.89879,570.483655 364.03221,568.022675 C368.257763,565.689506 371.847941,562.357429 374.4893,558.317355 C376.911858,554.17909 378.52367,549.617104 379.2385,544.875475 C380.994417,534.370122 380.834686,523.633713 378.76703,513.185245 C376.415138,501.046954 371.775604,489.466874 365.09584,479.062535 C364.67691,478.405755 363.58749,479.094535 364.00368,479.747005 L364.00368,479.746985 Z" id="Path" fill="#FFFFFF"></path>
            <path d="M379.65026,535.886295 C388.45698,535.806025 395.97148,530.066135 397.23047,522.505095 C397.35447,521.760225 396.02797,521.557795 395.90377,522.303655 C394.72432,529.387025 387.7536,534.646885 379.52123,534.721885 C378.65486,534.729785 378.78885,535.894105 379.65023,535.886295 L379.65026,535.886295 Z" id="Path" fill="#FFFFFF"></path>
            <path d="M366.03277,565.736115 C359.877024,560.831044 356.001745,553.616462 355.31118,545.775795 C355.25674,545.023935 353.91653,545.136945 353.97091,545.887895 C354.707786,554.047152 358.75792,561.547421 365.1763,566.638675 C365.80654,567.157325 366.65959,566.251915 366.03277,565.736075 L366.03277,565.736115 Z" id="Path" fill="#FFFFFF"></path>
            <path d="M374.98279,502.057675 C371.687664,502.726103 368.266049,501.891724 365.64852,499.781465 C365.02616,499.256135 364.17374,500.162155 364.79204,500.684065 C367.692929,503.003306 371.466129,503.931269 375.11182,503.222065 C375.46936,503.152155 375.75132,502.927065 375.71744,502.583835 C375.650665,502.241492 375.328404,502.010695 374.98279,502.057695 L374.98279,502.057675 Z" id="Path" fill="#FFFFFF"></path>
            <path d="M289.90542,618.047515 C249.88468,645.410985 210.09366,652.355265 177.86312,637.602515 C136.50212,618.670245 111.44722,566.545375 109.12286,494.593305 L111.57312,494.823095 C113.86454,565.773415 138.32694,617.060745 178.68712,635.534615 C210.05373,649.892085 248.98528,642.991775 288.31012,616.104615 L289.90542,618.047515 Z" id="Path" fill="#F2F2F2"></path>
            <path d="M537.22497,154.728725 C533.28387,198.152045 522.05608,243.939535 504.4474,288.118375 C482.672,342.751375 452.92133,390.871935 418.41071,427.277535 L416.49553,425.607595 C450.83908,389.377055 480.45453,341.468975 502.13896,287.061935 C521.73643,237.895345 533.3928,186.730065 535.86327,139.120135 L538.31055,139.529855 C538.05091,144.558075 537.68905,149.624365 537.22497,154.728725 Z" id="Path" fill="#F2F2F2"></path>
            <path d="M430.9082,93.0150851 L428.52879,93.2756951 C417.92132,51.5913351 397.36062,22.7128451 369.06728,9.76169507 C333.09953,-6.70151493 288.62399,4.35383507 243.8332,40.8916951 C198.81479,77.6160951 158.96165,135.624695 131.61602,204.234545 L129.30757,203.178115 C156.77329,134.268675 196.83099,75.9796751 242.10168,39.0511751 C287.59938,1.93596507 332.98268,-9.20045493 369.89126,7.69381507 C398.99607,21.0160851 420.09503,50.5198051 430.9082,93.0150851 Z" id="Path" fill="#F2F2F2"></path>
            <path d="M562.92147,455.923225 C514.44901,533.039305 455.64168,588.139035 397.33128,611.071305 L396.15174,608.908775 C454.05856,586.134935 512.52156,531.317255 560.77258,454.553675 L562.92147,455.923225 Z" id="Path" fill="#F2F2F2"></path>
            <path d="M637.70749,283.149935 C636.908737,291.950715 635.884867,300.859195 634.63588,309.875375 L632.20488,309.286155 C641.53426,242.002975 638.22518,180.311955 622.63154,130.870095 L624.97431,130.477995 C638.57506,173.607275 642.89836,225.956495 637.70749,283.149935 Z" id="Path" fill="#F2F2F2"></path>
            <path d="M131.43388,216.303605 C125.21225,229.410215 119.29446,242.988735 113.84473,256.661605 C82.48421,335.343825 66.59205,415.699275 67.89073,489.045075 L65.43973,488.783535 C64.13973,415.164985 80.07763,334.532745 111.53632,255.605175 C117.00169,241.893725 122.93632,228.276845 129.17588,215.133245 L131.43388,216.303605 Z" id="Path" fill="#F2F2F2"></path>
            <path d="M288.72895,672.111245 C248.70821,699.474705 208.91719,706.418985 176.68665,691.666245 C135.32565,672.733985 110.27075,620.609115 107.94639,548.657035 L110.39665,548.886835 C112.68807,619.837155 137.15047,671.124485 177.51065,689.598355 C208.87726,703.955815 247.80881,697.055515 287.13365,670.168355 L288.72895,672.111245 Z" id="Path" fill="#F2F2F2"></path>
            <path d="M536.0485,208.792455 C532.1074,252.215765 520.87961,298.003265 503.27093,342.182105 C481.49553,396.815105 451.74486,444.935655 417.23424,481.341265 L415.31906,479.671325 C449.66261,443.440785 479.27806,395.532695 500.96249,341.125665 C520.55996,291.959065 532.21633,240.793795 534.6868,193.183865 L537.13408,193.593585 C536.87444,198.621805 536.51258,203.688095 536.0485,208.792455 Z" id="Path" fill="#F2F2F2"></path>
            <path d="M531.73173,150.078815 L529.35232,150.339425 C518.74485,108.655065 498.18415,79.7765651 469.89081,66.8254251 C433.92306,50.3622151 389.44752,61.4175651 344.65673,97.9554251 C299.63832,134.679825 259.78518,192.688425 232.43955,261.298275 L230.1311,260.241835 C257.59682,191.332365 297.65452,133.043445 342.92521,96.1149051 C388.42291,58.9996951 433.80621,47.8632751 470.71479,64.7575451 C499.8196,78.0798151 520.91856,107.583535 531.73173,150.078815 Z" id="Path" fill="#F2F2F2"></path>
            <path d="M559.745,528.986945 C511.27254,606.103025 452.46519,661.202765 394.15481,684.135035 L392.97527,681.972505 C450.88209,659.198675 509.34509,604.380975 557.59611,527.617425 L559.745,528.986945 Z" id="Path" fill="#F2F2F2"></path>
            <path d="M636.53102,337.213675 C635.732267,346.014468 634.708397,354.922948 633.45941,363.939115 L631.02841,363.349905 C640.35779,296.066715 637.04871,234.375705 621.45507,184.933835 L623.79784,184.541745 C637.39859,227.671005 641.72189,280.020225 636.53102,337.213675 Z" id="Path" fill="#F2F2F2"></path>
            <path d="M130.25741,270.367335 C124.03578,283.473935 118.11799,297.052465 112.66826,310.725335 C81.30774,389.407555 65.41558,469.763005 66.71426,543.108805 L64.26326,542.847265 C62.96326,469.228715 78.90116,388.596475 110.35985,309.668895 C115.82522,295.957455 121.75985,282.340575 127.99941,269.196975 L130.25741,270.367335 Z" id="Path" fill="#F2F2F2"></path>
            <ellipse id="Oval" fill="#FD6584" transform="translate(590.661287, 226.780790) rotate(-56.363980) translate(-590.661287, -226.780790) " cx="590.661287" cy="226.78079" rx="8.8567" ry="10.19466"></ellipse>
            <path d="M287.72611,284.342965 C293.39952,275.649085 302.66266,268.817015 312.97865,268.239665 C323.2952,267.662465 335.69306,276.447575 340.78465,285.487295 C350.09818,302.022715 346.05674,317.922295 333.22913,329.422725 C331.48713,328.831835 325.40471,327.046675 323.6338,326.476335 L322.5108,324.448335 L321.12532,325.681185 C305.27262,327.262855 289.95879,325.500935 278.02723,313.688875 C279.51056,303.409535 282.05268,293.036845 287.72611,284.342965 Z" id="Path" fill="#2F2E41"></path>
            <polygon id="Path" fill="#FFB6B6" points="330.23099 400.404005 328.35699 417.785005 329.45999 440.578005 278.97499 434.580005 274.23099 400.404005 280.27499 400.463005"></polygon>
            <circle id="Oval" fill="#FFB7B7" cx="309.50252" cy="304.328005" r="20.96357"></circle>
            <path d="M286.2735,343.278895 L298.26976,336.081145 L322.26229,333.681885 L343.46829,344.480395 L343.25576,377.468245 L329.80285,411.682395 L273.42041,404.484675 L271.27817,392.416385 C271.27817,392.416385 255.68303,371.470155 272.4778,359.473895 L286.2735,343.278895 Z" id="Path" fill="#005FFF"></path>
            <path d="M301.66468,272.490675 C310.916535,269.896854 320.846718,272.548619 327.57379,279.409467 C334.300862,286.270314 336.756603,296.250782 333.98113,305.449775 C321.21336,306.468885 308.59296,305.276775 298.64445,296.243315 L297.7592,288.494745 L294.1292,294.979095 C290.468007,293.949135 286.801113,292.912755 283.12852,291.869955 C285.414608,282.569816 292.475354,275.18791 301.66468,272.490675 Z" id="Path" fill="#2F2E41"></path>
            <path d="M214.27274,245.325405 C213.121947,247.779038 213.117069,250.61638 214.259419,253.073955 C215.401769,255.531531 217.574002,257.356891 220.19161,258.058865 L259.24961,331.754945 L275.01481,319.587205 L231.66481,250.972455 C232.572448,246.396461 229.914112,241.864793 225.477004,240.424098 C221.039896,238.983403 216.226475,241.089048 214.27281,245.325405 L214.27274,245.325405 Z" id="Path" fill="#FFB6B6"></path>
            <path d="M278.34218,356.657225 C278.34218,356.657225 274.72285,359.867145 269.57575,351.003645 C265.45511,343.907735 244.90495,312.133405 241.99514,301.118725 C238.711847,301.211337 235.782747,299.068353 234.87714,295.911065 L256.95131,287.343225 C261.74982,289.742475 260.41803,293.067885 259.20131,294.788225 L267.42231,307.119685 L294.76796,337.807685 L280.99967,354.383325 L278.34218,356.657225 Z" id="Path" fill="#005FFF"></path>
            <path d="M651.48468,737.697345 L1.19068,737.697345 C0.533085594,737.697345 0,737.164259 0,736.506665 C0,735.849071 0.533085594,735.315985 1.19068,735.315985 L651.48468,735.315985 C652.142274,735.315985 652.67536,735.849071 652.67536,736.506665 C652.67536,737.164259 652.142274,737.697345 651.48468,737.697345 Z" id="Path" fill="#CCCCCC"></path>
            <path d="M495.79968,73.1805951 C484.06268,61.6118651 468.38922,55.2269251 452.67157,51.1420251 C434.87964,46.5180251 416.4812,43.7942451 398.30487,41.1809651 C379.362303,38.4575184 360.34442,36.3568717 341.25122,34.8790251 C322.183887,33.4089851 303.081977,32.5674517 283.94549,32.3544251 C266.89392,32.1634251 249.7279,32.1575251 232.75915,34.0493651 C216.77667,35.8312251 200.8327,39.4069151 186.42382,46.7477351 C173.597768,53.1414625 162.822136,63.0044371 155.32122,75.2160551 C148.42535,86.5827551 144.32537,100.208545 145.75103,113.569815 C146.419674,120.149154 148.468211,126.513547 151.76294,132.247615 C155.625054,138.584163 160.546855,144.210267 166.31368,148.880545 C178.21938,158.933765 192.45387,166.282825 202.69588,178.231015 C205.400385,181.361093 207.762843,184.771076 209.74306,188.402945 C211.2303,191.157405 212.90306,193.527825 215.66927,195.134635 C220.71838,198.016148 227.005084,197.578008 231.60568,194.023975 C234.79629,191.519765 237.08749,187.659785 239.5563,184.482655 L248.16519,173.403865 C248.787548,172.410542 249.508612,171.482595 250.31741,170.634145 C250.89773,170.154535 249.94041,170.577015 250.13015,170.457515 C250.23465,170.391775 250.41815,170.428275 250.53231,170.381515 C251.105628,170.217058 251.693372,170.107857 252.2875,170.055405 C258.57382,168.899518 264.873463,167.818502 271.18643,166.812355 C294.4963,163.051185 317.95724,159.948655 341.51608,158.276535 C353.659079,157.306861 365.846758,157.016145 378.02218,157.405745 C393.76596,158.050025 409.29232,161.176125 424.9783,162.524745 C441.86673,163.976745 459.60604,163.776145 475.51956,157.264185 C488.25692,152.051965 500.08346,143.282985 506.97988,131.171345 C510.252134,125.443066 512.190883,119.050776 512.65194,112.469875 C513.49368,97.5428351 506.23541,83.4667851 495.79968,73.1805951 Z" id="Path" fill="#E6E6E6"></path>
            <path d="M274.55915,44.5885351 C271.55577,44.5885351 268.554253,44.6044517 265.5546,44.6362851 C236.75098,44.9419451 206.9826,47.2707451 184.39281,62.1177351 C164.342,75.2962451 150.28925,104.651075 162.18181,125.703215 C167.64294,135.369935 177.53721,142.406535 188.01244,149.855455 C192.11821,152.775745 196.36472,155.795245 200.43391,159.047245 C209.32313,166.150805 217.69402,175.684245 222.50971,186.403745 L243.66105,159.184265 L247.65705,158.419165 C251.50179,157.683165 342.36875,140.452855 390.76252,146.046675 C395.21302,146.561295 399.71188,147.153405 404.06252,147.725675 C423.72209,150.312395 442.29106,152.754035 460.11786,149.148625 C478.72837,145.382625 499.16359,131.009335 500.38007,111.788725 C501.21275,98.6300551 492.65215,84.1947251 478.5715,75.0128851 C464.33399,65.7293351 446.57663,61.8963751 429.60856,58.7658851 C378.463146,49.3417782 326.565564,44.5963864 274.55915,44.5885351 L274.55915,44.5885351 Z" id="Path" fill="#FFFFFF"></path>
            <path d="M438.70625,86.4712251 L234.44391,86.4712251 C231.989391,86.4712251 229.99961,84.4814442 229.99961,82.0269251 C229.99961,79.572406 231.989391,77.5826251 234.44391,77.5826251 L438.70625,77.5826251 C441.160769,77.5826251 443.15055,79.572406 443.15055,82.0269251 C443.15055,84.4814442 441.160769,86.4712251 438.70625,86.4712251 L438.70625,86.4712251 Z" id="Path" fill="#005FFF"></path>
            <path d="M438.70625,113.750845 L234.44391,113.750845 C231.989391,113.750845 229.99961,111.761064 229.99961,109.306545 C229.99961,106.852026 231.989391,104.862245 234.44391,104.862245 L438.70625,104.862245 C441.160769,104.862245 443.15055,106.852026 443.15055,109.306545 C443.15055,111.761064 441.160769,113.750845 438.70625,113.750845 L438.70625,113.750845 Z" id="Path" fill="#005FFF"></path>
            <path d="M258.24768,141.029845 L234.44391,141.029845 C231.989391,141.029845 229.99961,139.040064 229.99961,136.585545 C229.99961,134.131026 231.989391,132.141245 234.44391,132.141245 L258.24768,132.141245 C260.702199,132.141245 262.69198,134.131026 262.69198,136.585545 C262.69198,139.040064 260.702199,141.029845 258.24768,141.029845 Z" id="Path" fill="#005FFF"></path>
            <circle id="Oval" fill="#E6E6E6" cx="221.34162" cy="228.742505" r="18.88976"></circle>
            <ellipse id="Oval" fill="#F2F2F2" transform="translate(157.893320, 455.382517) rotate(-56.363980) translate(-157.893320, -455.382517) " cx="157.89332" cy="455.382517" rx="8.8567" ry="10.19466"></ellipse>
            <ellipse id="Oval" fill="#E6E6E6" transform="translate(563.193006, 454.097050) rotate(-56.363980) translate(-563.193006, -454.097050) " cx="563.193006" cy="454.09705" rx="8.8567" ry="10.19466"></ellipse>
            <ellipse id="Oval" fill="#E6E6E6" transform="translate(410.193013, 307.097060) rotate(-56.363980) translate(-410.193013, -307.097060) " cx="410.193013" cy="307.09706" rx="8.8567" ry="10.19466"></ellipse>
            <polygon id="Path" fill="#FFB6B6" points="356.41699 715.978005 345.37899 715.978005 340.12699 673.404005 356.41699 673.404005"></polygon>
            <path d="M362.24275,735.101825 L354.32722,735.101825 L352.91433,727.628625 L349.29572,735.101825 L328.30183,735.101825 C326.236368,735.101825 324.410817,733.758893 323.796147,731.787012 C323.181477,729.815131 323.920526,727.67265 325.62021,726.499105 L342.3853,714.920525 L342.3853,707.365375 L360.0193,708.417885 L362.24275,735.101825 Z" id="Path" fill="#2F2E41"></path>
            <polygon id="Path" fill="#FFB6B6" points="294.41699 715.978005 283.37899 715.978005 278.12699 673.404005 294.41699 673.404005"></polygon>
            <path d="M300.24275,735.101825 L292.32722,735.101825 L290.91433,727.628625 L287.29572,735.101825 L266.30183,735.101825 C264.236368,735.101825 262.410817,733.758893 261.796147,731.787012 C261.181477,729.815131 261.920526,727.67265 263.62021,726.499105 L280.3853,714.920525 L280.3853,707.365375 L298.0193,708.417885 L300.24275,735.101825 Z" id="Path" fill="#2F2E41"></path>
            <path d="M361.17936,679.264125 L361.05936,679.264125 L358.93661,610.040795 C361.726694,604.659003 361.637538,598.237839 358.69911,592.935585 L358.3952,592.385455 L359.1832,588.732725 C360.195284,584.039766 359.730859,579.148625 357.85361,574.730015 L355.87329,510.157495 C362.94817,464.306315 329.23138,434.403925 329.23138,434.403925 L278.72317,434.403925 L267.87968,471.659725 C260.71116,541.500235 262.01188,609.557675 273.3873,675.493885 L273.07719,675.650715 C271.96053,676.036165 271.48161,677.583045 272.00719,679.105905 C272.53277,680.628765 273.86413,681.550815 274.98078,681.165355 L301.65492,680.237585 C302.77157,679.852215 303.25067,678.305245 302.72492,676.782395 C302.19935,675.259545 300.86798,674.337575 299.75132,674.722935 L297.93765,675.640275 L301.80558,608.842385 L301.37633,596.641335 L302.26065,582.799475 L306.34931,520.538905 L321.82546,597.101905 L337.63359,680.034625 C336.741102,680.842848 336.439004,682.117497 336.873828,683.2403 C337.308652,684.363103 338.390456,685.101812 339.59451,685.098129 L361.1794,685.098129 C362.790415,685.098129 364.0964,683.79213 364.0964,682.181115 C364.0964,680.5701 362.790415,679.264115 361.1794,679.264115 L361.17936,679.264125 Z" id="Path" fill="#2F2E41"></path>
            <path d="M337.62441,485.709295 C339.931988,484.288122 341.491552,481.917826 341.883453,479.23621 C342.275354,476.554594 341.459335,473.837122 339.65497,471.815015 L347.39097,388.768095 L327.53535,390.301675 L326.17465,471.451875 C322.906821,474.781346 322.645695,480.028765 325.566829,483.666217 C328.487963,487.303669 333.668036,488.181416 337.62441,485.709335 L337.62441,485.709295 Z" id="Path" fill="#FFB6B6"></path>
            <path d="M342.73291,344.811365 C342.73291,344.811365 347.51962,344.110975 346.9652,354.345575 C346.52133,362.539135 348.63097,413.042265 345.0261,423.849445 C347.822818,425.571948 349.097715,428.969995 348.12422,432.107025 L324.96576,427.171145 C322.26791,422.533935 322.82685,417.772645 324.7876,417.000895 L324.67242,402.180755 L319.55425,353.330065 L339.26386,345.256205 L342.73291,344.811365 Z" id="Path" fill="#005FFF"></path>
        </g>
    </g>
</svg>