<svg width="24" height="25" viewBox="0 0 24 25" fill="none" xmlns="http://www.w3.org/2000/svg">
<g clip-path="url(#clip0_1101_4161)">
<path d="M23.0973 15.1641C22.0977 19.8993 18.078 24.1221 11.9806 24.1221C5.77753 24.1221 2.06593 19.911 0.90625 15.1846" stroke="#687684" stroke-width="1.5855" stroke-linecap="round" stroke-linejoin="round"/>
<mask id="path-2-inside-1_1101_4161" fill="white">
<path d="M11.9806 0H11.9776C7.55768 0 3.97461 3.47442 3.97461 7.76034V13.5352C3.97461 17.8211 7.55768 21.2955 11.9776 21.2955H11.9806C16.4006 21.2955 19.9837 17.8211 19.9837 13.5352V7.76034C19.9837 3.47442 16.4006 0 11.9806 0Z"/>
</mask>
<path d="M11.9776 1.59H11.9806V-1.59H11.9776V1.59ZM11.9806 1.59C15.569 1.59 18.3937 4.39835 18.3937 7.76034H21.5737C21.5737 2.55049 17.2322 -1.59 11.9806 -1.59V1.59ZM18.3937 7.76034V13.5352H21.5737V7.76034H18.3937ZM18.3937 13.5352C18.3937 16.8972 15.569 19.7055 11.9806 19.7055V22.8855C17.2322 22.8855 21.5737 18.745 21.5737 13.5352H18.3937ZM11.9806 19.7055H11.9776V22.8855H11.9806V19.7055ZM11.9776 19.7055C8.38931 19.7055 5.56461 16.8972 5.56461 13.5352H2.38461C2.38461 18.745 6.72606 22.8855 11.9776 22.8855V19.7055ZM5.56461 13.5352V7.76034H2.38461V13.5352H5.56461ZM5.56461 7.76034C5.56461 4.39835 8.38931 1.59 11.9776 1.59V-1.59C6.72606 -1.59 2.38461 2.55049 2.38461 7.76034H5.56461Z" fill="#687684" mask="url(#path-2-inside-1_1101_4161)"/>
<path d="M11.9844 7.62891V13.8606" stroke="#687684" stroke-width="1.5855" stroke-linecap="round" stroke-linejoin="round"/>
<path d="M15.4453 12.0594V9.42969" stroke="#687684" stroke-width="1.5855" stroke-linecap="round" stroke-linejoin="round"/>
<path d="M8.51367 12.0594V9.42969" stroke="#687684" stroke-width="1.5855" stroke-linecap="round" stroke-linejoin="round"/>
</g>
<defs>
<clipPath id="clip0_1101_4161">
<rect width="24" height="25" fill="white"/>
</clipPath>
</defs>
</svg>
