<svg width="21" height="23" viewBox="0 0 21 23" fill="none" xmlns="http://www.w3.org/2000/svg">
<g clip-path="url(#clip0_7611_1578)">
<path d="M20.21 13.8271C19.3353 18.1001 15.8181 21.9106 10.4829 21.9106C5.05522 21.9106 1.80757 18.1106 0.792847 13.8456" stroke="#687684" stroke-width="1.5855" stroke-linecap="round" stroke-linejoin="round"/>
<mask id="path-2-inside-1_7611_1578" fill="white">
<path d="M10.4828 0.144287H10.4802C6.61273 0.144287 3.47754 3.27948 3.47754 7.14693V12.358C3.47754 16.2254 6.61273 19.3606 10.4802 19.3606H10.4828C14.3503 19.3606 17.4855 16.2254 17.4855 12.358V7.14693C17.4855 3.27948 14.3503 0.144287 10.4828 0.144287Z"/>
</mask>
<path d="M10.4802 1.73429H10.4828V-1.44571H10.4802V1.73429ZM10.4828 1.73429C13.4721 1.73429 15.8955 4.15761 15.8955 7.14693H19.0755C19.0755 2.40134 15.2284 -1.44571 10.4828 -1.44571V1.73429ZM15.8955 7.14693V12.358H19.0755V7.14693H15.8955ZM15.8955 12.358C15.8955 15.3473 13.4721 17.7706 10.4828 17.7706V20.9506C15.2284 20.9506 19.0755 17.1035 19.0755 12.358H15.8955ZM10.4828 17.7706H10.4802V20.9506H10.4828V17.7706ZM10.4802 17.7706C7.49086 17.7706 5.06754 15.3473 5.06754 12.358H1.88754C1.88754 17.1035 5.7346 20.9506 10.4802 20.9506V17.7706ZM5.06754 12.358V7.14693H1.88754V12.358H5.06754ZM5.06754 7.14693C5.06754 4.15761 7.49086 1.73429 10.4802 1.73429V-1.44571C5.7346 -1.44571 1.88754 2.40134 1.88754 7.14693H5.06754Z" fill="#687684" mask="url(#path-2-inside-1_7611_1578)"/>
<path d="M10.4856 7.02808V12.6513" stroke="#687684" stroke-width="1.5855" stroke-linecap="round" stroke-linejoin="round"/>
<path d="M13.5138 11.0263V8.65332" stroke="#687684" stroke-width="1.5855" stroke-linecap="round" stroke-linejoin="round"/>
<path d="M7.44922 11.0263V8.65332" stroke="#687684" stroke-width="1.5855" stroke-linecap="round" stroke-linejoin="round"/>
</g>
<defs>
<clipPath id="clip0_7611_1578">
<rect width="21" height="22.5591" fill="white" transform="translate(0 0.144287)"/>
</clipPath>
</defs>
</svg>
