<svg width="300" height="300" viewBox="0 0 300 300" fill="none" xmlns="http://www.w3.org/2000/svg">
<g clip-path="url(#clip0_1023_4829)">
<rect width="300" height="300" rx="150" fill="white"/>
<rect width="300" height="300" fill="#005FFF"/>
<rect width="300" height="300" rx="83.5714" transform="matrix(-1 0 0 1 300 0)" fill="#005FFF"/>
<path fill-rule="evenodd" clip-rule="evenodd" d="M112.137 127.866L33.3563 122.281C28.1562 121.913 24.8821 127.773 27.9224 132.008L83.0327 208.771C84.1882 210.38 86.049 211.335 88.0309 211.335H211.616C213.595 211.335 215.453 210.383 216.61 208.777L271.867 132.014C274.914 127.78 271.64 121.911 266.436 122.281L187.895 127.867L154.349 90.3632C151.891 87.6152 147.584 87.6311 145.146 90.3983L112.137 127.866ZM95.6388 199.165L146.767 180.058V199.165H95.6388ZM152.92 199.165V180.058L204.048 199.165H152.92ZM158.82 175.493L211.058 194.993L249.489 141.573L158.82 175.493ZM140.972 175.493L88.7338 194.993L50.3031 141.573L140.972 175.493ZM152.871 171.035V106.741L195.583 154.956L152.871 171.035ZM146.767 171.034V106.748L104.054 154.956L146.767 171.034ZM208.108 150.511L198.281 139.469L246.293 136.028L208.108 150.511ZM92.0423 150.511L101.869 139.469L53.8571 136.028L92.0423 150.511Z" fill="white"/>
</g>
<defs>
<clipPath id="clip0_1023_4829">
<rect width="300" height="300" rx="150" fill="white"/>
</clipPath>
</defs>
</svg>
