<svg width="64" height="64" viewBox="0 0 64 64" fill="none" xmlns="http://www.w3.org/2000/svg">
<g filter="url(#filter0_d_7558_176701)">
<circle cx="32" cy="31" r="28" fill="#005FFF"/>
</g>
<path d="M21.8788 34.2151C23.0035 38.9019 26.6033 43.0777 32.6196 43.0777C34.0395 43.0777 35.3432 42.8363 36.518 42.4044" stroke="white" stroke-width="1.5855" stroke-linecap="round" stroke-linejoin="round"/>
<path fill-rule="evenodd" clip-rule="evenodd" d="M32.6195 19.1584H32.6166C28.3298 19.1584 24.8546 22.6037 24.8546 26.8537V32.5801C24.8546 36.83 28.3298 40.2753 32.6166 40.2753H32.6195C33.4061 40.2753 34.1654 40.1593 34.8809 39.9436C34.5078 39.0806 34.3012 38.1301 34.3012 37.1318C34.3012 33.5661 36.9365 30.6107 40.3815 30.0754V26.8537C40.3815 22.6037 36.9063 19.1584 32.6195 19.1584ZM32.6226 25.9303C33.0604 25.9303 33.4153 26.2852 33.4153 26.7231V32.9025C33.4153 33.3403 33.0604 33.6952 32.6226 33.6952C32.1848 33.6952 31.8298 33.3403 31.8298 32.9025V26.7231C31.8298 26.2852 32.1848 25.9303 32.6226 25.9303ZM36.7719 28.509C36.7719 28.0712 36.417 27.7163 35.9791 27.7163C35.5413 27.7163 35.1864 28.0712 35.1864 28.509V31.1167C35.1864 31.5545 35.5413 31.9094 35.9791 31.9094C36.417 31.9094 36.7719 31.5545 36.7719 31.1167V28.509ZM29.257 27.7163C29.6948 27.7163 30.0497 28.0712 30.0497 28.509V31.1167C30.0497 31.5545 29.6948 31.9094 29.257 31.9094C28.8191 31.9094 28.4642 31.5545 28.4642 31.1167V28.509C28.4642 28.0712 28.8191 27.7163 29.257 27.7163Z" fill="white"/>
<path fill-rule="evenodd" clip-rule="evenodd" d="M46.494 37.1318C46.494 39.8629 44.2608 42.0769 41.506 42.0769C38.7512 42.0769 36.5181 39.8629 36.5181 37.1318C36.5181 34.4007 38.7512 32.1868 41.506 32.1868C44.2608 32.1868 46.494 34.4007 46.494 37.1318ZM38.8376 37.1319C38.8376 36.7177 39.1733 36.3819 39.5876 36.3819H40.756V35.2299C40.756 34.8157 41.0918 34.4799 41.506 34.4799C41.9202 34.4799 42.256 34.8157 42.256 35.2299V36.3819H43.4244C43.8387 36.3819 44.1744 36.7177 44.1744 37.1319C44.1744 37.5462 43.8387 37.8819 43.4244 37.8819H42.256V39.0338C42.256 39.448 41.9202 39.7838 41.506 39.7838C41.0918 39.7838 40.756 39.448 40.756 39.0338V37.8819H39.5876C39.1733 37.8819 38.8376 37.5462 38.8376 37.1319Z" fill="white"/>
<defs>
<filter id="filter0_d_7558_176701" x="0" y="0" width="64" height="64" filterUnits="userSpaceOnUse" color-interpolation-filters="sRGB">
<feFlood flood-opacity="0" result="BackgroundImageFix"/>
<feColorMatrix in="SourceAlpha" type="matrix" values="0 0 0 0 0 0 0 0 0 0 0 0 0 0 0 0 0 0 127 0" result="hardAlpha"/>
<feOffset dy="1"/>
<feGaussianBlur stdDeviation="2"/>
<feColorMatrix type="matrix" values="0 0 0 0 0 0 0 0 0 0 0 0 0 0 0 0 0 0 0.25 0"/>
<feBlend mode="normal" in2="BackgroundImageFix" result="effect1_dropShadow_7558_176701"/>
<feBlend mode="normal" in="SourceGraphic" in2="effect1_dropShadow_7558_176701" result="shape"/>
</filter>
</defs>
</svg>
