<?xml version="1.0" encoding="UTF-8"?>
<svg width="65px" height="65px" viewBox="0 0 65 65" version="1.1" xmlns="http://www.w3.org/2000/svg" xmlns:xlink="http://www.w3.org/1999/xlink">
    <title>algolia</title>
    <g id="Page-1" stroke="none" stroke-width="1" fill="none" fill-rule="evenodd">
        <g id="algolia" transform="translate(0.929669, 0.000000)" fill="#003FFF" fill-rule="nonzero">
            <path d="M31.9991252,0 C14.5119867,0 0.255527191,14.1003014 0.00337038417,31.5285608 C-0.252626374,49.2294566 14.1075118,63.8955109 31.8096876,63.9979096 C37.2764984,64.0299092 42.5423517,62.6923261 47.2181325,60.1515583 C47.6738067,59.9045214 47.7442058,59.2773294 47.3563708,58.9330137 L44.3624887,56.2783274 C43.7544964,55.7381742 42.8879473,55.5858561 42.1391568,55.9045721 C38.8751982,57.2933545 35.3283631,58.0024655 31.6740093,57.9576661 C17.3701905,57.7823083 5.81321681,45.881019 6.04105393,31.5772001 C6.26633108,17.455139 17.8245847,6.03512358 31.9991252,6.03512358 L57.9610365,6.03512358 L57.9610365,52.1823792 L43.230983,39.0945449 C42.754829,38.6708703 42.0239583,38.7540693 41.6399631,39.2622228 C39.2758331,42.3930632 35.4243619,44.3399185 31.146656,44.0442423 C25.2126512,43.6346475 20.405032,38.8577479 19.9595977,32.9263031 C19.4284044,25.8505527 25.0347334,19.9242277 32.0004052,19.9242277 C38.2992054,19.9242277 43.4869798,24.7728063 44.0284129,30.9333683 C44.0770523,31.4812014 44.3240892,31.9931949 44.7362439,32.3579903 L48.5723554,35.7589072 C49.0075498,36.1441823 49.6987411,35.9086653 49.8049798,35.3365125 C50.0814562,33.8581313 50.178735,32.3157508 50.0699364,30.7349708 C49.4517042,21.7251649 42.1545166,14.4778967 33.1408708,13.9223837 C22.8075616,13.2849518 14.167671,21.3693294 13.8937545,31.5029611 C13.6262379,41.378036 21.7170154,49.8912082 31.5933704,50.1088055 C35.7161982,50.1996843 39.5382298,48.9030607 42.6268306,46.6566892 L61.8726669,63.7175931 C62.6982565,64.4484639 64,63.8635113 64,62.7601653 L64,1.21470462 C64,0.543993111 63.4560069,0 62.7852954,0 L31.9991252,0 Z" id="Path"></path>
        </g>
    </g>
</svg>