<?xml version="1.0" encoding="UTF-8"?>
<svg width="100px" height="51px" viewBox="0 0 100 51" version="1.1" xmlns="http://www.w3.org/2000/svg" xmlns:xlink="http://www.w3.org/1999/xlink">
    <title>stream</title>
    <g id="Page-1" stroke="none" stroke-width="1" fill="none" fill-rule="evenodd">
        <g id="stream" fill="#006CFF">
            <path d="M65.3318131,16.3971363 L97.3193054,14.0819838 C99.4307333,13.9291796 100.760002,16.3586346 99.5255952,18.1142198 L77.1490311,49.9367439 C76.6797358,50.6039596 75.9242505,51 75.1196296,51 L24.939923,51 C24.1365054,51 23.3820229,50.6053626 22.9123264,49.9393494 L0.47619796,18.1166249 C-0.761273722,16.3614406 0.568131717,13.9286785 2.68130452,14.0819838 L34.5713077,16.3973969 L48.1921039,0.85012721 C49.190259,-0.28909009 50.9390862,-0.282456013 51.9290186,0.864658043 L65.3318131,16.3971363 Z M72.0305029,45.954494 L51.2708018,38.033286 L51.2708018,45.954494 L72.0305029,45.954494 Z M48.772506,45.954494 L48.772506,38.033286 L28.0128048,45.954494 L48.772506,45.954494 Z M46.3768936,36.1410709 L25.1665485,44.2248238 L9.56245795,22.0792332 L46.3768936,36.1410709 Z M53.6230946,36.1410709 L74.8334396,44.2248238 L90.4377107,22.0792332 L53.6230946,36.1410709 Z M48.7923608,34.292749 L48.7923608,7.63925303 L31.4498919,27.6274058 L48.7923608,34.292749 Z M51.2708018,34.292749 L51.2708018,7.64256004 L68.6136718,27.6274058 L51.2708018,34.292749 Z M26.3640539,25.7848962 L30.3542677,21.2069823 L10.8598791,19.7805556 L26.3640539,25.7848962 Z M73.4907335,25.7848962 L69.5009207,21.2069823 L88.9953294,19.7805556 L73.4907335,25.7848962 Z" id="Shape"></path>
        </g>
    </g>
</svg>