<svg width="1024" height="1024" viewBox="0 0 1024 1024" fill="none" xmlns="http://www.w3.org/2000/svg">
<g clip-path="url(#clip0_1023_4829)">
<rect width="1024" height="1024" fill="white"/>
<rect width="1024" height="1024" fill="#005FFF"/>
<rect width="1024" height="1024" rx="285.257" transform="matrix(-1 0 0 1 1024 0)" fill="#005FFF"/>
<path fill-rule="evenodd" clip-rule="evenodd" d="M407.002 450.636L188.634 435.157C174.22 434.135 165.145 450.379 173.572 462.117L326.33 674.892C329.533 679.354 334.69 682.001 340.184 682.001H682.743C688.228 682.001 693.379 679.363 696.586 674.909L849.749 462.134C858.197 450.398 849.122 434.131 834.696 435.157L616.993 450.638L524.009 346.684C517.195 339.067 505.256 339.111 498.499 346.781L407.002 450.636ZM361.272 648.268L502.991 595.304V648.268H361.272ZM520.047 648.268V595.304L661.766 648.268H520.047ZM536.402 582.651L681.197 636.701L787.722 488.629L536.402 582.651ZM486.928 582.651L342.132 636.701L235.608 488.629L486.928 582.651ZM519.912 570.293V392.08L638.303 525.726L519.912 570.293ZM502.991 570.293V392.101L384.598 525.726L502.991 570.293ZM673.021 513.406L645.781 482.798L778.863 473.26L673.021 513.406ZM351.303 513.406L378.541 482.798L245.459 473.26L351.303 513.406Z" fill="white"/>
</g>
<defs>
<clipPath id="clip0_1023_4829">
<rect width="1024" height="1024" fill="white"/>
</clipPath>
</defs>
</svg>
