<svg width="64" height="64" viewBox="0 0 64 64" fill="none" xmlns="http://www.w3.org/2000/svg">
<g filter="url(#filter0_d_7558_176699)">
<circle cx="32" cy="31" r="28" fill="#005FFF"/>
</g>
<g clip-path="url(#clip0_7558_176699)">
<path d="M43.4014 34.1946C42.4319 38.8901 38.5333 43.0775 32.6196 43.0775C26.6033 43.0775 23.0035 38.9017 21.8788 34.2149" stroke="white" stroke-width="1.5855" stroke-linecap="round" stroke-linejoin="round"/>
<path fill-rule="evenodd" clip-rule="evenodd" d="M32.6166 19.1584H32.6195C36.9063 19.1584 40.3815 22.6037 40.3815 26.8537V32.5801C40.3815 36.83 36.9063 40.2753 32.6195 40.2753H32.6166C28.3298 40.2753 24.8546 36.83 24.8546 32.5801V26.8537C24.8546 22.6037 28.3298 19.1584 32.6166 19.1584ZM33.4153 26.7231C33.4153 26.2852 33.0604 25.9303 32.6226 25.9303C32.1848 25.9303 31.8298 26.2852 31.8298 26.7231V32.9025C31.8298 33.3403 32.1848 33.6952 32.6226 33.6952C33.0604 33.6952 33.4153 33.3403 33.4153 32.9025V26.7231ZM35.9791 27.7163C36.417 27.7163 36.7719 28.0712 36.7719 28.509V31.1167C36.7719 31.5545 36.417 31.9094 35.9791 31.9094C35.5413 31.9094 35.1864 31.5545 35.1864 31.1167V28.509C35.1864 28.0712 35.5413 27.7163 35.9791 27.7163ZM30.0497 28.509C30.0497 28.0712 29.6948 27.7163 29.257 27.7163C28.8191 27.7163 28.4642 28.0712 28.4642 28.509V31.1167C28.4642 31.5545 28.8191 31.9094 29.257 31.9094C29.6948 31.9094 30.0497 31.5545 30.0497 31.1167V28.509Z" fill="white"/>
</g>
<defs>
<filter id="filter0_d_7558_176699" x="0" y="0" width="64" height="64" filterUnits="userSpaceOnUse" color-interpolation-filters="sRGB">
<feFlood flood-opacity="0" result="BackgroundImageFix"/>
<feColorMatrix in="SourceAlpha" type="matrix" values="0 0 0 0 0 0 0 0 0 0 0 0 0 0 0 0 0 0 127 0" result="hardAlpha"/>
<feOffset dy="1"/>
<feGaussianBlur stdDeviation="2"/>
<feColorMatrix type="matrix" values="0 0 0 0 0 0 0 0 0 0 0 0 0 0 0 0 0 0 0.25 0"/>
<feBlend mode="normal" in2="BackgroundImageFix" result="effect1_dropShadow_7558_176699"/>
<feBlend mode="normal" in="SourceGraphic" in2="effect1_dropShadow_7558_176699" result="shape"/>
</filter>
<clipPath id="clip0_7558_176699">
<rect width="23.2771" height="24.7902" fill="white" transform="translate(21 19.1584)"/>
</clipPath>
</defs>
</svg>
