<?xml version="1.0" encoding="UTF-8"?>
<svg width="171px" height="174px" viewBox="0 0 171 174" version="1.1" xmlns="http://www.w3.org/2000/svg" xmlns:xlink="http://www.w3.org/1999/xlink">
    <title>google-icon</title>
    <g id="Page-1" stroke="none" stroke-width="1" fill="none" fill-rule="evenodd">
        <g id="google-icon" fill-rule="nonzero">
            <path d="M171,88.9332593 C171,81.78 170.417922,76.56 169.1582,71.1467407 L87.244898,71.1467407 L87.244898,103.433037 L135.326159,103.433037 C134.357143,111.45663 129.122449,123.54 117.489573,131.659556 L117.326511,132.740475 L143.225983,152.748142 L145.020334,152.926741 C161.499629,137.749889 171,115.419778 171,88.9332593" id="Path" fill="#4285F4"></path>
            <path d="M87.244898,174 C110.800686,174 130.575974,166.266296 145.020334,152.926741 L117.489573,131.659556 C110.122375,136.782926 100.234397,140.359556 87.244898,140.359556 C64.1736179,140.359556 44.5921338,125.18337 37.6118736,104.206741 L36.5887259,104.293374 L9.65808706,125.076745 L9.30589969,126.053037 C23.65269,154.472815 53.122152,174 87.244898,174" id="Path" fill="#34A853"></path>
            <path d="M37.6118736,104.206741 C35.770074,98.7934814 34.7041559,92.9930372 34.7041559,87 C34.7041559,81.0062964 35.770074,75.2065186 37.514972,69.7932593 L37.466187,68.6403677 L10.1980631,47.5231252 L9.30589969,47.9462964 C3.39289427,59.7397779 0,72.9833704 0,87 C0,101.01663 3.39289427,114.259556 9.30589969,126.053037 L37.6118736,104.206741" id="Path" fill="#FBBC05"></path>
            <path d="M87.244898,33.6397779 C103.627291,33.6397779 114.678089,40.6964075 120.979369,46.5934814 L145.601744,22.62 C130.47974,8.60337036 110.800686,0 87.244898,0 C53.122152,0 23.65269,19.5265186 9.30589969,47.9462964 L37.514972,69.7932593 C44.5921338,48.8166296 64.1736179,33.6397779 87.244898,33.6397779" id="Path" fill="#EB4335"></path>
        </g>
    </g>
</svg>